<svg width="20" height="20" viewBox="0 0 20 20" fill="none" xmlns="http://www.w3.org/2000/svg">
<path d="M1.01149 17.9235C0.845533 17.9235 0.762555 17.9234 0.596597 17.8405C0.181704 17.6745 0.0157258 17.0937 0.264662 16.7618L0.513588 16.3469C1.2604 14.9362 1.42638 14.5213 1.84128 9.87453C2.17319 5.22772 5.40933 1.90854 9.64125 1.90854H10.1392C10.637 1.90854 10.9689 2.24045 10.9689 2.73833C10.9689 3.2362 10.637 3.56811 10.1392 3.56811H9.64125C6.23912 3.56811 3.83277 6.14046 3.50085 9.95749C3.16894 14.7703 2.92001 15.4341 2.00725 17.0937L1.75827 17.5086C1.59231 17.7575 1.34341 17.9235 1.01149 17.9235Z" fill="black"/>
<path d="M18.5198 17.9236C18.1879 17.9236 17.939 17.7576 17.773 17.5087L17.5241 17.0938C16.6943 15.4342 16.4454 14.7703 16.0305 9.95758C15.6985 6.14056 13.2922 3.5682 9.89007 3.5682H9.39217C8.89429 3.5682 8.56238 3.23629 8.56238 2.73842C8.56238 2.24055 8.89429 1.90863 9.39217 1.90863H9.89007C14.122 1.90863 17.2751 5.14483 17.69 9.87462C18.022 14.5214 18.2709 14.9363 19.0177 16.3469L19.2667 16.7618C19.4326 17.1767 19.3496 17.6746 18.9347 17.8406C18.7688 17.8406 18.6028 17.9236 18.5198 17.9236Z" fill="black"/>
<path d="M18.603 17.9235C18.52 17.9235 18.52 17.9235 18.437 17.9235C12.6285 16.7618 6.81999 16.7618 1.01148 17.9235C0.596586 18.0064 0.0987037 17.7575 0.0157249 17.2596C-0.0672538 16.8447 0.181672 16.3469 0.679545 16.2639C6.65401 15.0192 12.7944 15.0192 18.7689 16.2639C19.1838 16.3469 19.5157 16.7617 19.4328 17.2596C19.3498 17.6745 19.0179 17.9235 18.603 17.9235Z" fill="black"/>
<path d="M9.72432 3.31915C9.22645 3.31915 8.89453 2.98723 8.89453 2.48936V0.829787C8.89453 0.331915 9.22645 0 9.72432 0C10.2222 0 10.5541 0.331915 10.5541 0.829787V2.48936C10.5541 2.98723 10.2222 3.31915 9.72432 3.31915Z" fill="black"/>
<path d="M9.72423 19.5C8.39657 19.5 7.23486 18.4213 7.23486 17.0106C7.23486 16.5128 7.56678 16.1808 8.06465 16.1808C8.56252 16.1808 8.89444 16.5128 8.89444 17.0106C8.89444 17.4255 9.22635 17.8404 9.72423 17.8404C10.1391 17.8404 10.554 17.5085 10.554 17.0106C10.554 16.5128 10.8859 16.1808 11.3838 16.1808C11.8817 16.1808 12.2136 16.5128 12.2136 17.0106C12.2136 18.3383 11.1349 19.5 9.72423 19.5Z" fill="black"/>
</svg>
