<svg width="24" height="24" viewBox="0 0 24 24" fill="none" xmlns="http://www.w3.org/2000/svg">
<path d="M20.8 23.8C21.3 23.8 21.8 23.3 21.8 22.8V10H19.8V21.8H12V23.8H20.8Z" fill="#020202"/>
<path d="M2 22.8C2 23.4 2.4 23.8 3 23.8H12V21.8H4V10H2V22.8Z" fill="#020202"/>
<path d="M8.5 14C7.69234 14 7 14.6923 7 15.5C7 16.3076 7.69234 17 8.5 17C9.30766 17 10 16.3076 10 15.5C10 14.6923 9.30766 14 8.5 14Z" fill="#020202"/>
<path d="M16 17C15.4616 17 15 17.4615 15 18C15 18.5384 15.4616 19 16 19C16.5384 19 17 18.5384 17 18C16.9231 17.4615 16.5384 17 16 17Z" fill="#020202"/>
<path d="M14 9C13.4616 9 13 9.46152 13 9.99998C13 10.5384 13.4616 11 14 11C14.5385 11 15 10.5384 15 9.99998C14.9231 9.46152 14.5385 9 14 9Z" fill="#020202"/>
<path d="M0 7C0 3.13401 5.37258 0 12 0C18.6274 0 24 3.13401 24 7C24 9.1307 22.3681 11.0391 19.7935 12.3229V10.0236C21.1738 9.14783 22 8.07392 22 7C22 4 17.1797 2 12 2C6.47715 2 2 4.35253 2 7C2 8.22309 2.74418 9.27997 4 10.1029V12.2176C1.545 10.9358 0 9.07317 0 7Z" fill="#020202"/>
</svg>
