 <svg width="23" height="20" viewBox="0 0 23 20" fill="none" xmlns="http://www.w3.org/2000/svg">
            <path d="M21.5001 20H1C0.4 20 0 19.6 0 19V2.70001C0 2.10001 0.4 1.70001 1 1.70001H21.5001C22.1001 1.70001 22.5001 2.10001 22.5001 2.70001V19C22.5001 19.5 22.1001 20 21.5001 20ZM2 18H20.5001V3.70001H2V18Z" fill="black" />
            <path d="M17.7002 5.29999C17.1002 5.29999 16.7002 4.89999 16.7002 4.29999V1C16.7002 0.4 17.1002 0 17.7002 0C18.3002 0 18.7002 0.4 18.7002 1V4.29999C18.7002 4.89999 18.3002 5.29999 17.7002 5.29999Z" fill="black" />
            <path d="M5.00006 5.29999C4.40006 5.29999 4 4.89999 4 4.29999V1C4 0.4 4.40006 0 5.00006 0C5.60006 0 6.00006 0.4 6.00006 1V4.29999C6.00006 4.89999 5.50006 5.29999 5.00006 5.29999Z" fill="black" />
            <path d="M21.5002 8.60004H1.2002C0.900195 8.60004 0.700195 8.40004 0.700195 8.10004C0.700195 7.80004 0.900195 7.60004 1.2002 7.60004H21.5002C21.8002 7.60004 22.0002 7.80004 22.0002 8.10004C22.0002 8.30004 21.8002 8.60004 21.5002 8.60004Z" fill="black" />
            <path d="M5.7002 10.6H3.7002V12.5H5.7002V10.6Z" fill="black" />
            <path d="M9.00012 10.6H7.1001V12.5H9.00012V10.6Z" fill="black" />
            <path d="M12.3999 10.6H10.5V12.5H12.3999V10.6Z" fill="black" />
            <path d="M15.7998 10.6H13.7998V12.5H15.7998V10.6Z" fill="black" />
            <path d="M19.1002 10.6H17.2002V12.5H19.1002V10.6Z" fill="black" />
            <path d="M5.7002 13.7H3.7002V15.7H5.7002V13.7Z" fill="black" />
            <path d="M9.00012 13.7H7.1001V15.7H9.00012V13.7Z" fill="black" />
            <path d="M12.3999 13.7H10.5V15.7H12.3999V13.7Z" fill="black" />
            <path d="M15.7998 13.7H13.7998V15.7H15.7998V13.7Z" fill="black" />
            <path d="M19.1002 13.7H17.2002V15.7H19.1002V13.7Z" fill="black" />
          </svg>