<svg width="23" height="24" viewBox="0 0 23 24" fill="none" xmlns="http://www.w3.org/2000/svg">
<path d="M21.8 4.70001H1C0.4 4.70001 0 4.30001 0 3.70001C0 3.10001 0.4 2.70001 1 2.70001H21.8C22.4 2.70001 22.8 3.10001 22.8 3.70001C22.8 4.30001 22.3 4.70001 21.8 4.70001Z" fill="black"/>
<path d="M14.0001 4.09998C13.8001 2.89998 12.7 2 11.4 2C10.2 2 9.10005 2.89998 8.80005 4.09998L6.80005 3.70001C7.20005 1.60001 9.10005 0 11.3 0C13.5 0 15.4 1.60001 15.8 3.70001L14.0001 4.09998Z" fill="black"/>
<path d="M4.6001 24C3.6001 24 2.7001 23.1 2.6001 22.1L1.6001 4.79998C1.6001 4.19998 2.00012 3.80001 2.50012 3.70001C3.10012 3.70001 3.5001 4.09997 3.6001 4.59997L4.6001 21.9L18.1001 22L19.1001 4.59997C19.1001 3.99997 19.6001 3.60001 20.2001 3.70001C20.8001 3.70001 21.2001 4.19998 21.1001 4.79998L20.1001 22.1C20.0001 23.2 19.2001 24 18.1001 24H4.6001Z" fill="black"/>
<path d="M7.59991 23.9155C7.09991 23.9155 6.59991 23.5155 6.59991 23.0155L5.8999 11.1155C5.8999 10.5155 6.29993 10.1155 6.79993 10.0155C7.29993 10.0155 7.7999 10.4155 7.8999 10.9155L8.59991 22.8156C8.59991 23.4156 8.19991 23.9155 7.59991 23.9155Z" fill="black"/>
<path d="M15.2 23.9152C15.2 23.9152 15.1 23.9152 15.2 23.9152C14.6 23.9152 14.2 23.4152 14.2 22.8152L14.9 10.9152C14.9 10.3152 15.4 9.91519 16 10.0152C16.6 10.0152 17 10.5152 16.9 11.1152L16.2 23.0152C16.1 23.5152 15.7 23.9152 15.2 23.9152Z" fill="black"/>
<path d="M11.3999 20.3C10.7999 20.3 10.3999 19.9 10.3999 19.3V7.39996C10.3999 6.79996 10.7999 6.39996 11.3999 6.39996C11.9999 6.39996 12.3999 6.79996 12.3999 7.39996V19.3C12.3999 19.9 11.8999 20.3 11.3999 20.3Z" fill="black"/>
</svg>
