<svg width="22" height="24" viewBox="0 0 22 24" fill="none" xmlns="http://www.w3.org/2000/svg">
<path d="M3.2998 10.5C2.6998 10.5 2.2998 10.1 2.2998 9.5V1C2.2998 0.4 2.6998 0 3.2998 0C3.8998 0 4.2998 0.4 4.2998 1V9.5C4.2998 10 3.7998 10.5 3.2998 10.5Z" fill="black"/>
<path d="M3.2998 23.5C2.6998 23.5 2.2998 23.1 2.2998 22.5V15.2C2.2998 14.6 2.6998 14.2 3.2998 14.2C3.8998 14.2 4.2998 14.6 4.2998 15.2V22.5C4.2998 23.1 3.7998 23.5 3.2998 23.5Z" fill="black"/>
<path d="M3.29999 15.7999C1.49999 15.7999 0 14.3 0 12.5C0 10.7 1.49999 9.19995 3.29999 9.19995C5.09999 9.19995 6.60004 10.7 6.60004 12.5C6.60004 14.3 5.09999 15.7999 3.29999 15.7999ZM3.29999 11.2999C2.59999 11.2999 2 11.9 2 12.6C2 13.3 2.59999 13.8999 3.29999 13.8999C3.99999 13.8999 4.60004 13.3 4.60004 12.6C4.60004 11.9 3.99999 11.2999 3.29999 11.2999Z" fill="black"/>
<path d="M10.6997 15.2C10.0997 15.2 9.69971 14.8 9.69971 14.2V1C9.69971 0.4 10.0997 0 10.6997 0C11.2997 0 11.6997 0.4 11.6997 1V14.2C11.6997 14.7 11.2997 15.2 10.6997 15.2Z" fill="black"/>
<path d="M10.6997 23.5C10.0997 23.5 9.69971 23.1 9.69971 22.5V19.2C9.69971 18.6 10.0997 18.2 10.6997 18.2C11.2997 18.2 11.6997 18.6 11.6997 19.2V22.5C11.6997 23.1 11.2997 23.5 10.6997 23.5Z" fill="black"/>
<path d="M10.6999 19.7999C8.89989 19.7999 7.3999 18.3 7.3999 16.5C7.3999 14.7 8.89989 13.2 10.6999 13.2C12.4999 13.2 13.9999 14.7 13.9999 16.5C13.9999 18.3 12.4999 19.7999 10.6999 19.7999ZM10.6999 15.2999C9.99989 15.2999 9.3999 15.9 9.3999 16.6C9.3999 17.3 9.99989 17.8999 10.6999 17.8999C11.3999 17.8999 11.9999 17.3 11.9999 16.6C11.9999 15.9 11.3999 15.2999 10.6999 15.2999Z" fill="black"/>
<path d="M18.1997 5.69995C17.5997 5.69995 17.1997 5.29995 17.1997 4.69995V1C17.1997 0.4 17.5997 0 18.1997 0C18.7997 0 19.1997 0.4 19.1997 1V4.69995C19.1997 5.19995 18.7997 5.69995 18.1997 5.69995Z" fill="black"/>
<path d="M18.1997 23.5C17.5997 23.5 17.1997 23.1 17.1997 22.5V9.5C17.1997 8.9 17.5997 8.5 18.1997 8.5C18.7997 8.5 19.1997 8.9 19.1997 9.5V22.5C19.1997 23.1 18.7997 23.5 18.1997 23.5Z" fill="black"/>
<path d="M18.1999 10.2C16.3999 10.2 14.8999 8.6999 14.8999 6.8999C14.8999 5.0999 16.3999 3.59998 18.1999 3.59998C19.9999 3.59998 21.4999 5.0999 21.4999 6.8999C21.4999 8.6999 19.9999 10.2 18.1999 10.2ZM18.1999 5.69995C17.4999 5.69995 16.8999 6.3 16.8999 7C16.8999 7.7 17.4999 8.29993 18.1999 8.29993C18.8999 8.29993 19.4999 7.7 19.4999 7C19.4999 6.3 18.8999 5.69995 18.1999 5.69995Z" fill="black"/>
</svg>
