<svg width="12" height="17" viewBox="0 0 12 17" fill="none" xmlns="http://www.w3.org/2000/svg">
<path d="M6 16.2006C2.7 16.2006 0 13.5006 0 10.2006C0 6.90062 2.7 4.20062 6 4.20062C9.3 4.20062 12 6.90062 12 10.2006C12 13.5006 9.3 16.2006 6 16.2006ZM6 5.46061C3.36 5.46061 1.2 7.62061 1.2 10.2606C1.2 12.9006 3.36 15.0606 6 15.0606C8.64 15.0606 10.8 12.9006 10.8 10.2606C10.8 7.62061 8.64 5.46061 6 5.46061Z" fill="black"/>
<path d="M2.64004 10.1999H2.04004C2.04004 8.03985 3.84002 6.23987 6.00002 6.23987V6.83987C4.14002 6.83987 2.64004 8.39985 2.64004 10.1999Z" fill="black"/>
<path d="M9.52034 6.26595C9.18466 6.26595 8.96088 6.04217 8.96088 5.70649V4.14001C8.96088 2.46164 7.61818 1.11892 5.9398 1.11892C4.26142 1.11892 2.91872 2.46164 2.91872 4.14001V5.70649C2.91872 6.04217 2.69494 6.26595 2.35926 6.26595C2.02359 6.26595 1.7998 6.04217 1.7998 5.70649V4.14001C1.7998 1.84623 3.64602 0 5.9398 0C8.23358 0 10.0798 1.84623 10.0798 4.14001V5.70649C10.0798 6.04217 9.85601 6.26595 9.52034 6.26595Z" fill="black"/>
<path d="M5.9998 8.39998C5.31409 8.39998 4.7998 8.92254 4.7998 9.61932C4.7998 10.0838 5.02838 10.4903 5.42838 10.6645V12H6.57123V10.6645C6.91409 10.4322 7.1998 10.0838 7.1998 9.61932C7.1998 8.92254 6.68552 8.39998 5.9998 8.39998Z" fill="black"/>
</svg>
