<svg width="24" height="24" viewBox="0 0 24 24" fill="none" xmlns="http://www.w3.org/2000/svg">
<path d="M22.7999 23.8H1C0.4 23.8 0 23.4 0 22.8V1C0 0.4 0.4 0 1 0H22.7999C23.3999 0 23.7999 0.4 23.7999 1V22.8C23.7999 23.4 23.3999 23.8 22.7999 23.8ZM2 21.8H21.7999V2H2V21.8Z" fill="black"/>
<path d="M18.9 9.69995H15C14.4 9.69995 14 9.29995 14 8.69995C14 8.09995 14.4 7.69995 15 7.69995H18.9C19.5 7.69995 19.9 8.09995 19.9 8.69995C19.9 9.29995 19.4 9.69995 18.9 9.69995Z" fill="black"/>
<path d="M8.40027 9.69995H5.2002C4.6002 9.69995 4.2002 9.29995 4.2002 8.69995C4.2002 8.09995 4.6002 7.69995 5.2002 7.69995H8.40027C9.00027 7.69995 9.40027 8.09995 9.40027 8.69995C9.40027 9.29995 8.90027 9.69995 8.40027 9.69995Z" fill="black"/>
<path d="M8.40027 17.1H5.2002C4.6002 17.1 4.2002 16.7 4.2002 16.1C4.2002 15.5 4.6002 15.1 5.2002 15.1H8.40027C9.00027 15.1 9.40027 15.5 9.40027 16.1C9.40027 16.6 8.90027 17.1 8.40027 17.1Z" fill="black"/>
<path d="M12.0002 11.4H8.7002C8.1002 11.4 7.7002 11 7.7002 10.4V7.09998C7.7002 6.49998 8.1002 6.09998 8.7002 6.09998H12.0002C12.6002 6.09998 13.0002 6.49998 13.0002 7.09998V10.4C13.0002 10.9 12.6002 11.4 12.0002 11.4ZM9.7002 9.39996H11.0002V8.09998H9.7002V9.39996Z" fill="black"/>
<path d="M18.9 17.1H15C14.4 17.1 14 16.7 14 16.1C14 15.5 14.4 15.1 15 15.1H18.9C19.5 15.1 19.9 15.5 19.9 16.1C19.9 16.6 19.4 17.1 18.9 17.1Z" fill="black"/>
<path d="M12.0002 18.7H8.7002C8.1002 18.7 7.7002 18.3 7.7002 17.7V14.4C7.7002 13.8 8.1002 13.4 8.7002 13.4H12.0002C12.6002 13.4 13.0002 13.8 13.0002 14.4V17.7C13.0002 18.3 12.6002 18.7 12.0002 18.7ZM9.7002 16.7H11.0002V15.4H9.7002V16.7Z" fill="black"/>
<path d="M4.7002 17.1C4.1002 17.1 3.7002 16.7 3.7002 16.1V4.5C3.7002 3.9 4.1002 3.5 4.7002 3.5C5.3002 3.5 5.7002 3.9 5.7002 4.5V16.1C5.7002 16.6 5.2002 17.1 4.7002 17.1Z" fill="black"/>
</svg>
