<svg width="24" height="17" viewBox="0 0 24 17" fill="none" xmlns="http://www.w3.org/2000/svg">
<path d="M20.8 16.8H2.39999C1.09999 16.8 0 15.7 0 14.4V2.39996C0 1.09996 1.09999 0 2.39999 0H20.8C22.1 0 23.2 1.09996 23.2 2.39996V14.4C23.2 15.7 22.1 16.8 20.8 16.8ZM2.39999 2C2.19999 2 2 2.19996 2 2.39996V14.4C2 14.6 2.19999 14.8 2.39999 14.8H20.8C21 14.8 21.2 14.6 21.2 14.4V2.39996C21.2 2.19996 21 2 20.8 2H2.39999Z" fill="black"/>
<path d="M22.1 6.39996H1C0.4 6.39996 0 5.99996 0 5.39996C0 4.79996 0.4 4.39996 1 4.39996H22.1C22.7 4.39996 23.1 4.79996 23.1 5.39996C23.1 5.99996 22.7 6.39996 22.1 6.39996Z" fill="black"/>
<path d="M6.40009 11.5H4.1001V9.5H6.40009V11.5Z" fill="black"/>
</svg>
