<svg width="23" height="23" viewBox="0 0 23 23" fill="none" xmlns="http://www.w3.org/2000/svg">
<path d="M1 22.2C0.7 22.2 0.500003 22.1 0.300003 21.9C0.100003 21.7 0 21.4 0 21.1L0.300003 16C0.300003 15.8 0.399991 15.5 0.599991 15.4L15.7 0.299988C15.9 0.0999878 16.1 0 16.4 0C16.7 0 16.9 0.0999878 17.1 0.299988L21.9 5.10004C22.1 5.30004 22.2 5.49999 22.2 5.79999C22.2 6.09999 22.1 6.3 21.9 6.5L6.8 21.6C6.6 21.8 6.4 21.9 6.2 21.9L1 22.2ZM2.2 16.5L2 20.1L5.59999 19.9L19.8 5.70001L16.4 2.29999L2.2 16.5Z" fill="black"/>
<path d="M18.5 8.90004C18.2 8.90004 18 8.80005 17.8 8.60005L13.5 4.3C13.1 3.9 13.1 3.30004 13.5 2.90004C13.9 2.50004 14.4999 2.50004 14.8999 2.90004L19.1999 7.20002C19.5999 7.60002 19.5999 8.20005 19.1999 8.60005C18.9999 8.80005 18.7 8.90004 18.5 8.90004Z" fill="black"/>
<path d="M1.5 18.7C1.4 18.7 1.4 18.7 1.3 18.7C1.2 18.7 1.19999 18.7 1.09999 18.7L1 21.2L3.39999 21.1C3.39999 21 3.4 20.9 3.5 20.8C3.5 19.6 2.7 18.7 1.5 18.7Z" fill="black"/>
</svg>
