<svg width="19" height="19" viewBox="0 0 19 19" fill="none" xmlns="http://www.w3.org/2000/svg">
<path d="M8.26065 15.7205C3.93751 15.7205 0.400391 12.1834 0.400391 7.86026C0.400391 3.53712 3.93751 0 8.26065 0C12.5838 0 16.1209 3.53712 16.1209 7.86026C16.1209 12.1834 12.5838 15.7205 8.26065 15.7205ZM8.26065 1.65063C4.80213 1.65063 1.97244 4.48033 1.97244 7.93884C1.97244 11.3974 4.80213 14.227 8.26065 14.227C11.7192 14.227 14.5489 11.3974 14.5489 7.93884C14.5489 4.48033 11.7192 1.65063 8.26065 1.65063Z" fill="black"/>
<path d="M17.6143 18.3144C17.3785 18.3144 17.2213 18.2358 17.0641 18.0786L12.6623 13.6768C12.3479 13.3624 12.3479 12.8908 12.6623 12.5764C12.9767 12.262 13.4483 12.262 13.7628 12.5764L18.1645 16.9781C18.4789 17.2925 18.4789 17.7642 18.1645 18.0786C18.0073 18.2358 17.7715 18.3144 17.6143 18.3144Z" fill="black"/>
</svg>
