<svg width="24" height="24" viewBox="0 0 24 24" fill="none" xmlns="http://www.w3.org/2000/svg">
<path d="M22.8 23.8H1C0.4 23.8 0 23.4 0 22.8V1C0 0.4 0.4 0 1 0H22.8C23.4 0 23.8 0.4 23.8 1V22.8C23.8 23.3 23.3 23.8 22.8 23.8ZM2 21.8H21.8V2H2V21.8Z" fill="black"/>
<path d="M22.3998 7.29999H1.2998C0.999805 7.29999 0.799805 7.09999 0.799805 6.79999C0.799805 6.49999 0.999805 6.29999 1.2998 6.29999H22.3998C22.6998 6.29999 22.8998 6.49999 22.8998 6.79999C22.8998 7.09999 22.6998 7.29999 22.3998 7.29999Z" fill="black"/>
<path d="M4.50024 2.89996C3.80024 2.89996 3.2002 3.49995 3.2002 4.19995C3.2002 4.89995 3.80024 5.5 4.50024 5.5C5.20024 5.5 5.80029 4.89995 5.80029 4.19995C5.80029 3.49995 5.20024 2.89996 4.50024 2.89996Z" fill="black"/>
<path d="M8.00024 2.89996C7.30024 2.89996 6.7002 3.49995 6.7002 4.19995C6.7002 4.89995 7.30024 5.5 8.00024 5.5C8.70024 5.5 9.30029 4.89995 9.30029 4.19995C9.20029 3.49995 8.70024 2.89996 8.00024 2.89996Z" fill="black"/>
<path d="M11.4001 2.89996C10.7001 2.89996 10.1001 3.49995 10.1001 4.19995C10.1001 4.89995 10.7001 5.5 11.4001 5.5C12.1001 5.5 12.7001 4.89995 12.7001 4.19995C12.6001 3.49995 12.1001 2.89996 11.4001 2.89996Z" fill="black"/>
<path d="M15.1002 15.5H8.7002C8.1002 15.5 7.7002 15.1 7.7002 14.5C7.7002 13.9 8.1002 13.5 8.7002 13.5H15.1002C15.7002 13.5 16.1002 13.9 16.1002 14.5C16.1002 15 15.6002 15.5 15.1002 15.5Z" fill="black"/>
<path d="M11.9004 18.6C11.3004 18.6 10.9004 18.2 10.9004 17.6V11.2C10.9004 10.6 11.3004 10.2 11.9004 10.2C12.5004 10.2 12.9004 10.6 12.9004 11.2V17.6C12.9004 18.2 12.4004 18.6 11.9004 18.6Z" fill="black"/>
</svg>
