<svg xmlns="http://www.w3.org/2000/svg" width="24" height="24">
  <symbol viewBox="0 0 24 24" fill="none" xmlns="http://www.w3.org/2000/svg" id="analitycs">
    <path d="M22.8 23.8H1c-.6 0-1-.4-1-1V1c0-.6.4-1 1-1s1 .4 1 1v20.8h20.8c.6 0 1 .4 1 1s-.4 1-1 1z" fill="#000"></path>
    <path d="M7 19.6c-1.8 0-3.3-1.5-3.3-3.3C3.7 14.5 5.2 13 7 13c1.8 0 3.3 1.5 3.3 3.3 0 1.8-1.5 3.3-3.3 3.3zM7 15c-.7 0-1.3.6-1.3 1.3 0 .7.6 1.3 1.3 1.3.7 0 1.3-.6 1.3-1.3 0-.7-.6-1.3-1.3-1.3zm12.8 2.3c-1.8 0-3.3-1.5-3.3-3.3 0-1.8 1.5-3.3 3.3-3.3 1.8 0 3.3 1.5 3.3 3.3 0 1.8-1.5 3.3-3.3 3.3zm0-4.7c-.7 0-1.3.6-1.3 1.3 0 .7.6 1.3 1.3 1.3.7 0 1.3-.6 1.3-1.3 0-.7-.6-1.3-1.3-1.3zm-7.5-2.8C10.5 9.8 9 8.3 9 6.5c0-1.8 1.5-3.3 3.3-3.3 1.8 0 3.3 1.5 3.3 3.3 0 1.8-1.5 3.3-3.3 3.3zm0-4.7c-.7 0-1.3.6-1.3 1.3 0 .7.6 1.3 1.3 1.3.7 0 1.3-.6 1.3-1.3 0-.7-.6-1.3-1.3-1.3z"
      fill="#000"></path>
    <path d="M8.2 14.8c-.2 0-.3 0-.5-.1-.5-.3-.7-.9-.4-1.4l2.9-5.2c.3-.5.9-.7 1.4-.4.5.3.7.9.4 1.4l-2.9 5.2c-.2.3-.5.5-.9.5zm10.1-1.7c-.2 0-.5-.1-.7-.3l-4.3-4c-.4-.4-.4-1-.1-1.4.4-.4 1-.4 1.4-.1l4.3 4c.4.4.4 1 .1 1.4-.2.3-.4.4-.7.4z" fill="#000"></path>
  </symbol>
  <symbol viewBox="0 0 24 23" fill="none" xmlns="http://www.w3.org/2000/svg" id="mailing">
    <path d="M21.338 21.7h-18.2c-.8 0-1.5-.5-1.7-1.2-.1-.2 0-.4.1-.6l7.1-6.3c.2-.2.5-.2.7 0 .2.2.2.5 0 .7l-6.8 6c.2.2.4.3.6.3h18.2c.2 0 .5-.1.6-.3l-6.9-6.1c-.2-.2-.2-.5 0-.7.2-.2.5-.2.7 0l7.2 6.4c.2.1.2.4.1.5-.3.8-1 1.3-1.7 1.3zm-6.1-16.9c-.2 0-.4-.1-.5-.2l-2.4-2.4-2.4 2.4c-.3.3-.8.3-1.1 0-.3-.3-.3-.8 0-1.1l3-3c.3-.3.8-.3 1.1 0l3 3c.3.3.3.8 0 1.1-.3.1-.5.2-.7.2z"
      fill="#000"></path>
    <path d="M12.238 12.2c-.4 0-.8-.3-.8-.8V1.8c0-.4.3-.8.8-.8.4 0 .8.3.8.8v9.6c-.1.5-.4.8-.8.8z" fill="#000"></path>
    <path d="M21.338 22.2h-18.2c-1.3 0-2.4-1.1-2.4-2.4V7.9c0-1.3 1.1-2.4 2.4-2.4h6.4c.6 0 1 .4 1 1s-.4 1-1 1h-6.4c-.2 0-.4.2-.4.4v11.9c0 .2.2.4.4.4h18.2c.2 0 .4-.2.4-.4V7.9c0-.2-.2-.4-.4-.4h-6.4c-.6 0-1-.4-1-1s.4-1 1-1h6.4c1.3 0 2.4 1.1 2.4 2.4v11.9c-.1 1.3-1.1 2.4-2.4 2.4z"
      fill="#000"></path>
    <path d="M12.238 17.2c-.1 0-.2 0-.3-.1l-10.3-9.2c-.2-.2-.2-.5 0-.7.2-.2.5-.2.7 0l10 8.9 10-8.9c.2-.2.5-.2.7 0 .2.2.2.5 0 .7l-10.3 9.2c-.3.1-.4.1-.5.1z" fill="#000"></path>
  </symbol>
  <symbol viewBox="0 0 24 24" fill="none" xmlns="http://www.w3.org/2000/svg" id="marketing">
    <path d="M22.8 23.8H1c-.6 0-1-.4-1-1V1c0-.6.4-1 1-1h21.8c.6 0 1 .4 1 1v21.8c0 .6-.4 1-1 1zM2 21.8h19.8V2H2v19.8z" fill="#000"></path>
    <path d="M18.9 9.7H15c-.6 0-1-.4-1-1s.4-1 1-1h3.9c.6 0 1 .4 1 1s-.5 1-1 1zm-10.5 0H5.2c-.6 0-1-.4-1-1s.4-1 1-1h3.2c.6 0 1 .4 1 1s-.5 1-1 1zm0 7.4H5.2c-.6 0-1-.4-1-1s.4-1 1-1h3.2c.6 0 1 .4 1 1 0 .5-.5 1-1 1z" fill="#000"></path>
    <path d="M12 11.4H8.7c-.6 0-1-.4-1-1V7.1c0-.6.4-1 1-1H12c.6 0 1 .4 1 1v3.3c0 .5-.4 1-1 1zm-2.3-2H11V8.1H9.7v1.3zm9.2 7.7H15c-.6 0-1-.4-1-1s.4-1 1-1h3.9c.6 0 1 .4 1 1 0 .5-.5 1-1 1zM12 18.7H8.7c-.6 0-1-.4-1-1v-3.3c0-.6.4-1 1-1H12c.6 0 1 .4 1 1v3.3c0 .6-.4 1-1 1zm-2.3-2H11v-1.3H9.7v1.3zm-5 .4c-.6 0-1-.4-1-1V4.5c0-.6.4-1 1-1s1 .4 1 1v11.6c0 .5-.5 1-1 1z"
      fill="#000"></path>
  </symbol>
  <symbol viewBox="0 0 24 17" fill="none" xmlns="http://www.w3.org/2000/svg" id="payments">
    <path d="M20.8 16.8H2.4c-1.3 0-2.4-1.1-2.4-2.4v-12C0 1.1 1.1 0 2.4 0h18.4c1.3 0 2.4 1.1 2.4 2.4v12c0 1.3-1.1 2.4-2.4 2.4zM2.4 2c-.2 0-.4.2-.4.4v12c0 .2.2.4.4.4h18.4c.2 0 .4-.2.4-.4v-12c0-.2-.2-.4-.4-.4H2.4z" fill="#000"></path>
    <path d="M22.1 6.4H1c-.6 0-1-.4-1-1s.4-1 1-1h21.1c.6 0 1 .4 1 1s-.4 1-1 1zM6.4 11.5H4.1v-2h2.3v2z" fill="#000"></path>
  </symbol>
  <symbol viewBox="0 0 26 26" fill="none" xmlns="http://www.w3.org/2000/svg" id="product">
    <path d="M12.945 26c-.664 0-1.217-.222-1.66-.667L.664 14.667C.22 14.222 0 13.667 0 13s.221-1.222.664-1.667L3.983 8c.332-.333.664-.444 1.106-.333.443.11.664.444.775.889.11.444.332.888.664 1.222.995 1 2.544 1 3.54 0a2.49 2.49 0 0 0 0-3.556 2.634 2.634 0 0 0-1.217-.666c-.442-.112-.664-.334-.885-.778-.11-.445 0-.778.332-1.111l2.987-3c.885-.89 2.434-.89 3.32 0l2.212 2.222c.221-.556.553-1 .996-1.333.885-.89 2.102-1.334 3.319-1.334s2.434.445 3.319 1.334c1.88 1.888 1.88 4.888 0 6.666-.442.445-.885.667-1.328 1l2.213 2.223c.443.444.664 1 .664 1.666 0 .667-.221 1.222-.664 1.667l-2.987 3c-.332.333-.664.444-1.106.333-.443-.111-.664-.444-.775-.889A2.653 2.653 0 0 0 19.804 16c-.995-1-2.544-1-3.54 0a2.49 2.49 0 0 0 0 3.556c.332.333.774.555 1.217.666.442.111.664.334.885.778.11.444 0 .778-.332 1.111l-3.32 3.333c-.552.334-1.106.556-1.77.556zm-8.52-15.333l-2.212 2.222v.222l10.621 10.667c.11.11.11.11.221 0l2.213-2.222c-.221-.112-.443-.334-.664-.556-1.88-1.889-1.88-4.889 0-6.667.885-.889 2.102-1.333 3.32-1.333 1.216 0 2.434.444 3.319 1.333.22.223.442.445.553.667l1.88-1.889v-.222l-3.65-3.667c-.332-.333-.443-.778-.222-1.222a1.216 1.216 0 0 1 1.107-.667c.774 0 1.438-.222 1.991-.666a2.49 2.49 0 0 0 0-3.556c-.996-1-2.545-1-3.54 0-.553.556-.775 1.222-.664 2 0 .445-.221.889-.664 1.111-.442.222-.885.111-1.217-.222l-3.651-3.667c-.11-.11-.11-.11-.221 0l-1.881 1.89c.221.11.442.333.664.555 1.88 1.889 1.88 4.889 0 6.667-.886.888-2.102 1.333-3.32 1.333-1.217 0-2.434-.445-3.319-1.334-.332-.333-.553-.555-.663-.777z"
      fill="#000"></path>
  </symbol>
  <symbol viewBox="0 0 24 24" fill="none" xmlns="http://www.w3.org/2000/svg" id="settings">
    <path d="M13 23.5h-2.6c-.9 0-1.7-.8-1.7-1.7v-1.7l-.8-.3-1.2 1.1c-.6.6-1.8.6-2.4 0l-1.8-1.8c-.3-.3-.5-.7-.5-1.2s.2-.9.5-1.2l1.2-1.2-.3-.8H1.7C.8 14.7 0 13.9 0 13v-2.6c0-.9.8-1.7 1.7-1.7h1.7l.3-.8-1.1-1.2c-.3-.3-.5-.7-.5-1.2s.2-.9.5-1.2l1.8-1.8c.6-.6 1.8-.6 2.4 0L8 3.7l.8-.3V1.7c0-.9.8-1.7 1.7-1.7h2.6c.9 0 1.7.8 1.7 1.7v1.7l.8.3 1.2-1.1c.3-.3.8-.5 1.2-.5.5 0 .9.2 1.2.5L21 4.4c.3.3.5.7.5 1.2s-.2.9-.5 1.2L19.8 8l.3.8h1.7c.9 0 1.7.8 1.7 1.7v2.6c0 .9-.8 1.7-1.7 1.7h-1.7l-.3.8 1.1 1.2c.3.3.5.7.5 1.2s-.2.9-.5 1.2L19.1 21c-.6.6-1.8.6-2.4 0l-1.2-1.2-.8.3v1.7c0 1-.8 1.7-1.7 1.7zm-2.3-2h2v-1.4c0-.8.6-1.6 1.3-1.9l.7-.3c.2-.1.5-.2.8-.2.5 0 1.1.2 1.4.6l1 1 1.4-1.4-1-1c-.6-.6-.7-1.6-.4-2.3l.3-.7c.2-.7 1-1.3 1.8-1.3h1.4v-2H20c-.8 0-1.6-.6-1.9-1.4l-.3-.7c-.3-.7-.2-1.6.4-2.2l1-1-1.4-1.4-1 1c-.6.6-1.6.7-2.3.4l-.7-.3c-.7-.2-1.3-1-1.3-1.8V1.8h-2v1.4c0 .8-.6 1.6-1.3 1.9l-.7.3c-.2.1-.5.2-.8.2-.5 0-1.1-.2-1.4-.6l-1-1-1.4 1.4 1 1c.6.6.7 1.6.4 2.3l-.3.7c-.2.7-1 1.3-1.8 1.3H1.8v2h1.4c.8 0 1.6.6 1.9 1.3l.3.7c.3.7.2 1.6-.4 2.2l-1 1 1.4 1.4 1-1c.6-.6 1.6-.7 2.3-.4l.7.3c.7.2 1.3 1 1.3 1.8v1.5zm1-5.3c-2.4 0-4.4-2-4.4-4.4 0-2.4 2-4.4 4.4-4.4 2.4 0 4.4 2 4.4 4.4 0 2.4-2 4.4-4.4 4.4zm0-6.8c-1.3 0-2.4 1.1-2.4 2.4 0 1.3 1.1 2.4 2.4 2.4 1.3 0 2.4-1.1 2.4-2.4 0-1.3-1.1-2.4-2.4-2.4z"
      fill="#000"></path>
  </symbol>
  <symbol viewBox="0 0 24 24" fill="none" xmlns="http://www.w3.org/2000/svg" id="site-constructor">
    <path d="M22.8 23.8H1c-.6 0-1-.4-1-1V1c0-.6.4-1 1-1h21.8c.6 0 1 .4 1 1v21.8c0 .5-.5 1-1 1zM2 21.8h19.8V2H2v19.8z" fill="#000"></path>
    <path d="M22.4 7.3H1.3c-.3 0-.5-.2-.5-.5s.2-.5.5-.5h21.1c.3 0 .5.2.5.5s-.2.5-.5.5zM4.5 2.9c-.7 0-1.3.6-1.3 1.3 0 .7.6 1.3 1.3 1.3.7 0 1.3-.6 1.3-1.3 0-.7-.6-1.3-1.3-1.3zm3.5 0c-.7 0-1.3.6-1.3 1.3 0 .7.6 1.3 1.3 1.3.7 0 1.3-.6 1.3-1.3-.1-.7-.6-1.3-1.3-1.3zm3.4 0c-.7 0-1.3.6-1.3 1.3 0 .7.6 1.3 1.3 1.3.7 0 1.3-.6 1.3-1.3-.1-.7-.6-1.3-1.3-1.3zm3.7 12.6H8.7c-.6 0-1-.4-1-1s.4-1 1-1h6.4c.6 0 1 .4 1 1 0 .5-.5 1-1 1z"
      fill="#000"></path>
    <path d="M11.9 18.6c-.6 0-1-.4-1-1v-6.4c0-.6.4-1 1-1s1 .4 1 1v6.4c0 .6-.5 1-1 1z" fill="#000"></path>
  </symbol>
  <symbol viewBox="0 0 22 25" fill="none" xmlns="http://www.w3.org/2000/svg" id="translations">
    <path d="M10.938 15.7c-2.4 0-4.4-2-4.4-4.4 0-2.4 2-4.4 4.4-4.4 2.4 0 4.4 2 4.4 4.4 0 2.4-2 4.4-4.4 4.4zm0-6.8c-1.3 0-2.4 1.1-2.4 2.4 0 1.3 1.1 2.4 2.4 2.4 1.3 0 2.4-1.1 2.4-2.4 0-1.3-1.1-2.4-2.4-2.4z" fill="#000"></path>
    <path d="M10.938 21.7c-5.7 0-10.4-4.7-10.4-10.4S5.238.9 10.938.9s10.4 4.7 10.4 10.4-4.7 10.4-10.4 10.4zm0-18.8c-4.6 0-8.4 3.8-8.4 8.4 0 4.6 3.8 8.4 8.4 8.4 4.6 0 8.4-3.8 8.4-8.4 0-4.6-3.8-8.4-8.4-8.4z" fill="#000"></path>
    <path d="M16.437 24.7h-10.9c-.3 0-.7-.2-.9-.5-.2-.3-.2-.7 0-1l1.8-3.7c.2-.5.8-.7 1.3-.5 2.1.8 4.4.8 6.4 0 .5-.2 1 0 1.3.5l1.9 3.7c.2.3.1.7 0 1-.3.3-.6.5-.9.5zm-9.3-2h7.7l-.7-1.5c-2 .6-4.2.6-6.2 0l-.8 1.5z" fill="#000"></path>
  </symbol>
  <symbol viewBox="0 0 26 24" fill="none" xmlns="http://www.w3.org/2000/svg" id="users">
    <path d="M8.705 10.93c-2.677 0-4.796-2.453-4.796-5.465C3.91 2.454 6.03 0 8.705 0c2.677 0 4.796 2.454 4.796 5.465.112 3.123-2.119 5.466-4.796 5.466zm0-8.588c-1.45 0-2.565 1.45-2.565 3.235 0 1.784 1.227 3.234 2.565 3.234 1.339 0 2.566-1.45 2.566-3.234.111-1.785-1.116-3.235-2.566-3.235zm7.14 20.858H1.456C.9 23.2.341 22.752.341 22.194L.006 17.51c-.111-1.785 1.227-3.792 3.012-4.461a16.304 16.304 0 0 1 11.265 0c1.784.669 3.123 2.676 3.011 4.46l-.334 4.685c-.112.558-.558 1.004-1.116 1.004zM2.46 20.967h12.27l.222-3.569c0-.669-.669-1.896-1.561-2.23a14.488 14.488 0 0 0-9.704 0c-.892.334-1.561 1.45-1.561 2.23l.334 3.57z"
      fill="#FF7439"></path>
    <path d="M15.845 23.2H1.456C.9 23.2.341 22.752.341 22.194L.006 17.51c-.111-1.785 1.227-3.792 3.012-4.461a16.304 16.304 0 0 1 11.265 0c1.784.669 3.123 2.676 3.011 4.46l-.334 4.685c-.112.558-.558 1.004-1.116 1.004zM2.46 20.967h12.27l.222-3.569c0-.669-.669-1.896-1.561-2.23a14.488 14.488 0 0 0-9.704 0c-.892.334-1.561 1.45-1.561 2.23l.334 3.57zM24.544 23.2h-5.689c-.669 0-1.115-.447-1.115-1.116 0-.67.446-1.116 1.116-1.116h4.684l.223-3.011c0-.558-.558-1.45-1.227-1.785a11.49 11.49 0 0 0-3.904-.669c-.669 0-1.115-.558-1.115-1.115 0-.67.558-1.115 1.115-1.115 1.562 0 3.123.334 4.685.892 1.561.558 2.788 2.342 2.677 4.015l-.223 4.015c-.223.558-.67 1.004-1.227 1.004zm-4.46-11.043c-2.231 0-4.016-2.007-4.016-4.461s1.785-4.462 4.016-4.462c2.23 0 4.015 2.008 4.015 4.462 0 2.454-1.785 4.461-4.015 4.461zm0-6.692c-1.004 0-1.785 1.004-1.785 2.23 0 1.228.78 2.232 1.785 2.232 1.003 0 1.784-1.004 1.784-2.231 0-1.227-.78-2.23-1.784-2.23z"
      fill="#FF7439"></path>
  </symbol>
</svg>