<svg width="8" height="8" viewBox="0 0 8 8" fill="none" xmlns="http://www.w3.org/2000/svg">
<path d="M0.999951 7.59999C0.699951 7.59999 0.5 7.5 0.3 7.3C-0.1 6.9 -0.1 6.29998 0.3 5.89998L5.89998 0.3C6.29998 -0.1 6.9 -0.1 7.3 0.3C7.7 0.7 7.7 1.29996 7.3 1.69996L1.69996 7.3C1.49996 7.5 1.29995 7.59999 0.999951 7.59999Z" fill="#464F5E"/>
<path d="M6.59999 7.59999C6.29999 7.59999 6.09998 7.5 5.89998 7.3L0.3 1.69996C-0.1 1.29996 -0.1 0.7 0.3 0.3C0.7 -0.1 1.29996 -0.1 1.69996 0.3L7.3 5.89998C7.7 6.29998 7.7 6.9 7.3 7.3C7.1 7.5 6.89999 7.59999 6.59999 7.59999Z" fill="#464F5E"/>
</svg>
