<svg width="22" height="25" viewBox="0 0 22 25" fill="none" xmlns="http://www.w3.org/2000/svg">
<path d="M10.9376 15.7001C8.53756 15.7001 6.5376 13.7 6.5376 11.3C6.5376 8.90005 8.53756 6.90002 10.9376 6.90002C13.3376 6.90002 15.3376 8.90005 15.3376 11.3C15.3376 13.7 13.3376 15.7001 10.9376 15.7001ZM10.9376 8.90002C9.63756 8.90002 8.5376 10 8.5376 11.3C8.5376 12.6 9.63756 13.7001 10.9376 13.7001C12.2376 13.7001 13.3376 12.6 13.3376 11.3C13.3376 10 12.2376 8.90002 10.9376 8.90002Z" fill="black"/>
<path d="M10.9376 21.7001C5.23756 21.7001 0.537598 17 0.537598 11.3C0.537598 5.60005 5.23756 0.900024 10.9376 0.900024C16.6376 0.900024 21.3376 5.60005 21.3376 11.3C21.3376 17 16.6376 21.7001 10.9376 21.7001ZM10.9376 2.90002C6.33756 2.90002 2.5376 6.70005 2.5376 11.3C2.5376 15.9 6.33756 19.7001 10.9376 19.7001C15.5376 19.7001 19.3376 15.9 19.3376 11.3C19.3376 6.70005 15.5376 2.90002 10.9376 2.90002Z" fill="black"/>
<path d="M16.4373 24.7001H5.53733C5.23733 24.7001 4.8373 24.5001 4.6373 24.2001C4.4373 23.9001 4.4373 23.5001 4.6373 23.2001L6.43729 19.5C6.63729 19 7.23734 18.8 7.73734 19C9.83734 19.8 12.1373 19.8 14.1373 19C14.6373 18.8 15.1373 19 15.4373 19.5L17.3373 23.2001C17.5373 23.5001 17.4373 23.9001 17.3373 24.2001C17.0373 24.5001 16.7373 24.7001 16.4373 24.7001ZM7.1373 22.7001H14.8373L14.1373 21.2001C12.1373 21.8001 9.93729 21.8001 7.93729 21.2001L7.1373 22.7001Z" fill="black"/>
</svg>
