<svg width="26" height="24" viewBox="0 0 26 24" xmlns="http://www.w3.org/2000/svg">
<path d="M8.70517 10.9305C6.02833 10.9305 3.90918 8.47668 3.90918 5.46524C3.90918 2.45379 6.02833 0 8.70517 0C11.382 0 13.5012 2.45379 13.5012 5.46524C13.6128 8.58821 11.382 10.9305 8.70517 10.9305ZM8.70517 2.34234C7.25521 2.34234 6.13988 3.79219 6.13988 5.57674C6.13988 7.3613 7.36675 8.81128 8.70517 8.81128C10.0436 8.81128 11.2705 7.3613 11.2705 5.57674C11.3821 3.79219 10.1551 2.34234 8.70517 2.34234Z" />
<path d="M15.8445 23.1991H1.45643C0.898758 23.1991 0.341084 22.753 0.341084 22.1953L0.00649293 17.5109C-0.105042 15.7263 1.23339 13.7187 3.01795 13.0495C6.6986 11.7111 10.6023 11.7111 14.2829 13.0495C16.0675 13.7187 17.4059 15.7263 17.2944 17.5109L16.9598 22.1953C16.8483 22.753 16.4021 23.1991 15.8445 23.1991ZM2.46027 20.9685H14.7291L14.9522 17.3994C14.9522 16.7302 14.283 15.5033 13.3907 15.1687C10.2677 14.0533 6.81011 14.0533 3.68713 15.1687C2.79485 15.5033 2.12568 16.6186 2.12568 17.3994L2.46027 20.9685Z" />
<path d="M15.8445 23.1991H1.45643C0.898758 23.1991 0.341084 22.753 0.341084 22.1953L0.00649293 17.5109C-0.105042 15.7263 1.23339 13.7187 3.01795 13.0495C6.6986 11.7111 10.6023 11.7111 14.2829 13.0495C16.0675 13.7187 17.4059 15.7263 17.2944 17.5109L16.9598 22.1953C16.8483 22.753 16.4021 23.1991 15.8445 23.1991ZM2.46027 20.9685H14.7291L14.9522 17.3994C14.9522 16.7302 14.283 15.5033 13.3907 15.1687C10.2677 14.0533 6.81011 14.0533 3.68713 15.1687C2.79485 15.5033 2.12568 16.6186 2.12568 17.3994L2.46027 20.9685Z" />
<path d="M24.5438 23.1991H18.8555C18.1863 23.1991 17.7402 22.753 17.7402 22.0837C17.7402 21.4145 18.1863 20.9684 18.8555 20.9684H23.54L23.763 17.957C23.763 17.3993 23.2054 16.5069 22.5362 16.1723C21.3093 15.7262 19.9709 15.5032 18.6324 15.5032C17.9632 15.5032 17.5171 14.9455 17.5171 14.3878C17.5171 13.7186 18.0748 13.2725 18.6324 13.2725C20.1939 13.2725 21.7554 13.6071 23.3169 14.1648C24.8784 14.7225 26.1052 16.507 25.9937 18.18L25.7707 22.1953C25.5476 22.7529 25.1014 23.1991 24.5438 23.1991Z" />
<path d="M20.0836 12.1572C17.8529 12.1572 16.0684 10.1496 16.0684 7.69583C16.0684 5.24206 17.8529 3.23444 20.0836 3.23444C22.3143 3.23444 24.0989 5.24206 24.0989 7.69583C24.0989 10.1496 22.3143 12.1572 20.0836 12.1572ZM20.0836 5.46513C19.0798 5.46513 18.2991 6.46895 18.2991 7.69583C18.2991 8.92272 19.0798 9.92653 20.0836 9.92653C21.0874 9.92653 21.8682 8.92272 21.8682 7.69583C21.8682 6.46895 21.0874 5.46513 20.0836 5.46513Z" />
</svg>
