<svg width="24" height="23" viewBox="0 0 24 23" fill="none" xmlns="http://www.w3.org/2000/svg">
<path d="M21.3379 21.7H3.1379C2.3379 21.7 1.63791 21.2 1.43791 20.5C1.33791 20.3 1.4379 20.1 1.5379 19.9L8.6379 13.6C8.8379 13.4 9.1379 13.4 9.3379 13.6C9.5379 13.8 9.5379 14.1 9.3379 14.3L2.5379 20.3C2.7379 20.5 2.9379 20.6 3.1379 20.6H21.3379C21.5379 20.6 21.8379 20.5 21.9379 20.3L15.0379 14.2C14.8379 14 14.8379 13.7 15.0379 13.5C15.2379 13.3 15.5379 13.3 15.7379 13.5L22.9379 19.9C23.1379 20 23.1379 20.3 23.0379 20.4C22.7379 21.2 22.0379 21.7 21.3379 21.7Z" fill="black"/>
<path d="M15.2378 4.80007C15.0378 4.80007 14.8378 4.7 14.7378 4.6L12.3378 2.2001L9.9378 4.6C9.6378 4.9 9.13779 4.9 8.83779 4.6C8.53779 4.3 8.53779 3.80002 8.83779 3.50002L11.8378 0.500024C12.1378 0.200024 12.6378 0.200024 12.9378 0.500024L15.9378 3.50002C16.2378 3.80002 16.2378 4.3 15.9378 4.6C15.6378 4.7 15.4378 4.80007 15.2378 4.80007Z" fill="black"/>
<path d="M12.238 12.2001C11.838 12.2001 11.438 11.9 11.438 11.4V1.80005C11.438 1.40005 11.738 1 12.238 1C12.638 1 13.038 1.30005 13.038 1.80005V11.4C12.938 11.9 12.638 12.2001 12.238 12.2001Z" fill="black"/>
<path d="M21.3378 22.2001H3.1378C1.8378 22.2001 0.737793 21.1 0.737793 19.8V7.90002C0.737793 6.60002 1.8378 5.5 3.1378 5.5H9.5378C10.1378 5.5 10.5378 5.9 10.5378 6.5C10.5378 7.1 10.1378 7.5 9.5378 7.5H3.1378C2.9378 7.5 2.73779 7.70002 2.73779 7.90002V19.8C2.73779 20 2.9378 20.2001 3.1378 20.2001H21.3378C21.5378 20.2001 21.7378 20 21.7378 19.8V7.90002C21.7378 7.70002 21.5378 7.5 21.3378 7.5H14.9378C14.3378 7.5 13.9378 7.1 13.9378 6.5C13.9378 5.9 14.3378 5.5 14.9378 5.5H21.3378C22.6378 5.5 23.7378 6.60002 23.7378 7.90002V19.8C23.6378 21.1 22.6378 22.2001 21.3378 22.2001Z" fill="black"/>
<path d="M12.2378 17.2C12.1378 17.2 12.0378 17.2 11.9378 17.1L1.63779 7.9C1.43779 7.7 1.43779 7.40005 1.63779 7.20005C1.83779 7.00005 2.13779 7.00005 2.33779 7.20005L12.3378 16.1L22.3378 7.20005C22.5378 7.00005 22.8378 7.00005 23.0378 7.20005C23.2378 7.40005 23.2378 7.7 23.0378 7.9L12.7378 17.1C12.4378 17.2 12.3378 17.2 12.2378 17.2Z" fill="black"/>
</svg>
