<svg width="26" height="26" viewBox="0 0 26 26" fill="none" xmlns="http://www.w3.org/2000/svg">
<path d="M12.9447 26C12.2809 26 11.7277 25.7778 11.2851 25.3334L0.663803 14.6667C0.22125 14.2223 0 13.6667 0 13C0 12.3334 0.22125 11.7778 0.663803 11.3334L3.98295 8.00004C4.31487 7.66671 4.64678 7.55555 5.08933 7.66666C5.53189 7.77777 5.75318 8.11116 5.86382 8.5556C5.97445 9.00004 6.1957 9.44446 6.52762 9.7778C7.52336 10.7778 9.07231 10.7778 10.0681 9.7778C11.0638 8.7778 11.0638 7.22223 10.0681 6.22223C9.73614 5.88889 9.29362 5.6667 8.85106 5.55559C8.40851 5.44447 8.18725 5.22224 7.96597 4.77779C7.85533 4.33335 7.96596 4.00002 8.29787 3.66668L11.2851 0.666667C12.1702 -0.222222 13.7192 -0.222222 14.6043 0.666667L16.817 2.88889C17.0383 2.33333 17.3702 1.88888 17.8127 1.55554C18.6978 0.666653 19.9149 0.222263 21.1319 0.222263C22.3489 0.222263 23.5659 0.666653 24.451 1.55554C26.3319 3.44443 26.3319 6.44443 24.451 8.22221C24.0085 8.66666 23.5659 8.88891 23.1234 9.22224L25.3361 11.4445C25.7787 11.8889 26 12.4445 26 13.1111C26 13.7778 25.7787 14.3334 25.3361 14.7778L22.3489 17.7778C22.017 18.1111 21.6851 18.2222 21.2426 18.1111C20.8 18 20.5787 17.6667 20.4681 17.2223C20.3574 16.7778 20.1361 16.3333 19.8042 16C18.8085 15 17.2596 15 16.2638 16C15.2681 17 15.2681 18.5556 16.2638 19.5556C16.5958 19.8889 17.0383 20.1112 17.4808 20.2223C17.9234 20.3334 18.1447 20.5556 18.3659 21C18.4766 21.4444 18.3659 21.7778 18.034 22.1111L14.7149 25.4444C14.1617 25.7778 13.6085 26 12.9447 26ZM4.42553 10.6667L2.21277 12.8889V13V13.1111L12.834 23.7778C12.9447 23.8889 12.9447 23.8889 13.0553 23.7778L15.2681 21.5556C15.0468 21.4444 14.8255 21.2222 14.6043 21C12.7234 19.1111 12.7234 16.1111 14.6043 14.3333C15.4894 13.4444 16.7064 13 17.9234 13C19.1404 13 20.3575 13.4444 21.2426 14.3333C21.4638 14.5555 21.6851 14.7778 21.7958 15L23.6766 13.1111V13V12.8889L20.0255 9.22224C19.6936 8.88891 19.5829 8.44449 19.8042 8.00004C20.0255 7.5556 20.468 7.33334 20.9106 7.33334C21.6851 7.33334 22.3489 7.11114 22.9021 6.6667C23.8979 5.6667 23.8979 4.11113 22.9021 3.11113C21.9064 2.11113 20.3574 2.11113 19.3617 3.11113C18.8085 3.66668 18.5872 4.33334 18.6978 5.11111C18.6978 5.55556 18.4766 6 18.034 6.22223C17.5915 6.44445 17.1489 6.33332 16.817 5.99999L13.1659 2.33333C13.0553 2.22222 13.0553 2.22222 12.9447 2.33333L11.0638 4.22224C11.2851 4.33335 11.5064 4.55557 11.7276 4.77779C13.6085 6.66668 13.6085 9.66669 11.7276 11.4445C10.8425 12.3334 9.6255 12.7778 8.40848 12.7778C7.19146 12.7778 5.97444 12.3334 5.08933 11.4445C4.75742 11.1111 4.53617 10.8889 4.42553 10.6667Z" fill="black"/>
</svg>
