<svg width="24" height="24" viewBox="0 0 24 24" fill="none" xmlns="http://www.w3.org/2000/svg">
<path d="M13 23.5H10.4C9.50002 23.5 8.70007 22.7 8.70007 21.8V20.1L7.90002 19.8L6.70007 20.9C6.10007 21.5 4.90005 21.5 4.30005 20.9L2.5 19.1C2.2 18.8 2 18.4 2 17.9C2 17.4 2.2 17 2.5 16.7L3.70007 15.5L3.40002 14.7H1.70007C0.800073 14.7 0 13.9 0 13V10.4C0 9.50002 0.800073 8.70001 1.70007 8.70001H3.40002L3.70007 7.90002L2.59998 6.70001C2.29998 6.40001 2.09998 6 2.09998 5.5C2.09998 5 2.29998 4.60005 2.59998 4.30005L4.40002 2.5C5.00002 1.9 6.20005 1.9 6.80005 2.5L8 3.70001L8.80005 3.40002V1.70001C8.80005 0.800012 9.6 0 10.5 0H13.1C14 0 14.8 0.800012 14.8 1.70001V3.40002L15.6 3.70001L16.8 2.60004C17.1 2.30004 17.6 2.10004 18 2.10004C18.5 2.10004 18.9001 2.30004 19.2001 2.60004L21 4.40002C21.3 4.70002 21.5 5.10004 21.5 5.60004C21.5 6.10004 21.3 6.50005 21 6.80005L19.8 8L20.1 8.80005H21.8C22.7 8.80005 23.5 9.6 23.5 10.5V13.1C23.5 14 22.7 14.8 21.8 14.8H20.1L19.8 15.6L20.9 16.8C21.2 17.1 21.4 17.5 21.4 18C21.4 18.5 21.2 18.9 20.9 19.2L19.1 21C18.5 21.6 17.3001 21.6 16.7001 21L15.5 19.8L14.7001 20.1V21.8C14.7001 22.8 13.9 23.5 13 23.5ZM10.7001 21.5H12.7001V20.1C12.7001 19.3 13.3 18.5 14 18.2L14.7001 17.9C14.9001 17.8 15.2 17.7 15.5 17.7C16 17.7 16.6 17.9 16.9 18.3L17.9 19.3L19.3 17.9L18.3 16.9C17.7 16.3 17.6 15.3 17.9 14.6L18.2001 13.9C18.4001 13.2 19.2 12.6 20 12.6H21.4V10.6H20C19.2 10.6 18.4 10 18.1 9.20001L17.8 8.5C17.5 7.8 17.6001 6.90005 18.2001 6.30005L19.2001 5.30005L17.8 3.90002L16.8 4.90002C16.2 5.50002 15.2 5.60005 14.5 5.30005L13.8 5C13.1 4.8 12.5 4.00001 12.5 3.20001V1.80005H10.5V3.20001C10.5 4.00001 9.90007 4.80004 9.20007 5.10004L8.5 5.40002C8.3 5.50002 8.00007 5.60004 7.70007 5.60004C7.20007 5.60004 6.60005 5.4 6.30005 5L5.30005 4L3.90002 5.40002L4.90002 6.40002C5.50002 7.00002 5.60005 8.00001 5.30005 8.70001L5 9.40002C4.8 10.1 4.00007 10.7 3.20007 10.7H1.80005V12.7H3.20007C4.00007 12.7 4.79998 13.3 5.09998 14L5.40002 14.7C5.70002 15.4 5.6 16.3 5 16.9L4 17.9L5.40002 19.3L6.40002 18.3C7.00002 17.7 8.00007 17.6 8.70007 17.9L9.40002 18.2C10.1 18.4 10.7001 19.2 10.7001 20V21.5ZM11.7001 16.2C9.30007 16.2 7.30005 14.2 7.30005 11.8C7.30005 9.40005 9.30007 7.40002 11.7001 7.40002C14.1001 7.40002 16.1 9.40005 16.1 11.8C16.1 14.2 14.1001 16.2 11.7001 16.2ZM11.7001 9.40002C10.4001 9.40002 9.30005 10.5 9.30005 11.8C9.30005 13.1 10.4001 14.2 11.7001 14.2C13.0001 14.2 14.1 13.1 14.1 11.8C14.1 10.5 13.0001 9.40002 11.7001 9.40002Z" fill="black"/>
</svg>
